<?xml version="1.0" encoding="utf-8"?>
<!-- Generator: Adobe Illustrator 26.0.1, SVG Export Plug-In . SVG Version: 6.00 Build 0)  -->
<svg version="1.1" id="Calque_1" xmlns="http://www.w3.org/2000/svg" xmlns:xlink="http://www.w3.org/1999/xlink" x="0px" y="0px"
	 viewBox="0 0 316 106" style="enable-background:new 0 0 316 106;" xml:space="preserve">
<style type="text/css">
	.st0{fill:#E07700;}
	.st1{fill:url(#SVGID_1_);}
	.st2{fill:#333333;}
	.st3{opacity:0.31;fill:#FFFFFF;enable-background:new    ;}
	.st4{fill:#FFA100;}
	.st5{fill:none;stroke:#FFA100;stroke-miterlimit:10;}
	.st6{fill:none;stroke:#FFA100;stroke-miterlimit:10;stroke-dasharray:4.9929,3.9943;}
	.st7{fill:none;stroke:#FFA100;stroke-miterlimit:10;stroke-dasharray:5,4;}
</style>
<g id="couleur_00000182512263147389406880000011206297104050343306_">
	<path class="st0" d="M59.6,0H13.3v46.3c0,25.6,20.7,46.3,46.3,46.3s46.3-20.7,46.3-46.3C105.9,20.7,85.1,0,59.6,0z"/>
	
		<radialGradient id="SVGID_1_" cx="78.249" cy="-291.0464" r="38.9654" gradientTransform="matrix(1 0 0 -1 0 -255.8744)" gradientUnits="userSpaceOnUse">
		<stop  offset="0" style="stop-color:#FFC700"/>
		<stop  offset="1" style="stop-color:#FFA100"/>
	</radialGradient>
	<path class="st1" d="M64.2,9.2H22.5v41.7c0,23,18.7,41.7,41.7,41.7c23,0,41.7-18.7,41.7-41.7C105.9,27.9,87.2,9.2,64.2,9.2z"/>
	<path class="st2" d="M42.5,27.8c-8.8,0-9.2,47.6,1.1,47.6C22.7,75.4,23.9,27.8,42.5,27.8z M48.2,37.5c-2.6,0-4.7-2.1-4.7-4.7
		c0-2.6,2.1-4.7,4.7-4.7c2.6,0,4.7,2.1,4.7,4.7C52.9,35.4,50.8,37.5,48.2,37.5z"/>
	<path class="st2" d="M57.8,28.2c1.5,0,2.4,0.8,2.4,4.6v36.9c0,3.8-0.9,5.7-2.4,5.7c4.2,0,8.6,0.1,8.6-8.1v-31
		C66.4,29.9,64.7,28.2,57.8,28.2z M78.3,69.7V36.3c0-6.4-1.7-8.1-8.6-8.1c1.5,0,2.4,0.8,2.4,4.6v34.5c0,8.2,4.4,8.1,8.6,8.1
		C79.2,75.4,78.3,73.5,78.3,69.7z M89.9,69.7V36.3c0-6.4-1.7-8.1-8.6-8.1c1.5,0,2.4,0.8,2.4,4.6v34.5c0,8.2,4.4,8.1,8.6,8.1
		C90.9,75.4,89.9,73.5,89.9,69.7z"/>
	<path class="st3" d="M64.2,9.2H22.5v22.4c0-4.6,5.8-6.1,9.4-6.1c8.8,0,30.2,0,36.1,0c7.7,0,19.7,9.3,19.7,20.4v5.8
		c0,6.5,5.3,8.1,10,8.1c1.2,0,6.4-0.3,6.4,2.9c1.1-3.8,1.8-7.8,1.8-11.9C105.9,27.9,87.2,9.2,64.2,9.2z"/>
</g>
<g id="Calque_12_-_copie_00000029730834279401719840000000807534458576764349_">
	<g>
		<path class="st4" d="M313.3,70.4c-0.6,0-1.1,0.2-1.5,0.5c0.8-3.5-0.6-8.8-2.7-11c-1.3-1.5-3-1.5-4.1-1.1c-0.7,0.3-1.8,1-2.3,2.4
			c-0.8-0.1-1.6,0.1-2.5,0.6c-1.8,1.3-2.9,4.2-2.6,5.7c0.4,1.6,1.5,2.2,4,3.4c-1,0.8-1.4,1.7-1.8,2.3l-0.3,0.6l0.2,0.4
			c0.6,1.1,1.7,2.2,3.2,2.9c0.4,0.2,1,0.4,1.5,0.5c0.5,0.1,1.1,0.2,1.6,0.2c0.5,0,0.9-0.1,1.4-0.1c0.5-0.1,1-0.2,1.5-0.4
			c1.3-0.5,2.4-1.2,2.7-2.2c0.5,0.4,1,0.6,1.7,0.6c1.5,0,2.6-1.2,2.6-2.7C316,71.6,314.8,70.4,313.3,70.4z M304.6,76.6
			c-0.6-0.1-1.1-0.2-1.5-0.6l0-3.9c0.2-0.1,0.3-0.2,0.5-0.3c0.1,0,0.2,0.1,0.3,0.1c0.2,0.1,0.4,0.2,0.7,0.3L304.6,76.6z M309.1,75.9
			c-0.5,0.4-0.9,0.6-1.5,0.7l0-3.4l1,0.4l0.5,0.2L309.1,75.9z M298.4,67.9c-0.9-1.9,0.6-4.3,1.8-5.3c1.4-1.1,2.6-0.7,3.6-0.1
			c2.4,1.3,5.5,4.6,5.5,9.9C305.7,70.7,299.1,69.4,298.4,67.9z M310.3,70.7c-0.4-5.4-5.6-8.9-6.7-9.3c0.2-1.2,0.8-2,1.7-2.3
			c1.4-0.5,2.4,0.6,3,1.2C309.7,62,311.3,65.6,310.3,70.7z"/>
		<g>
			<path class="st4" d="M295.7,77.8c-3.4-1.8-2.4-7.4,1.4-8.6C291.8,70,291.3,75.7,295.7,77.8z"/>
		</g>
		<g>
			<path class="st4" d="M291.3,76.2c-1.9-1.8-1.2-4.8,1-6.1C288.5,70.7,288.2,74.8,291.3,76.2z"/>
		</g>
	</g>
</g>
<g>
	<path class="st4" d="M134.3,40.1H117V11.6h2.2v26.6h15.1V40.1z"/>
	<path class="st4" d="M151.7,30.9h-13.4c0,5.1,2.1,7.6,6.3,7.6c2,0,3.8-0.8,5.3-2.4l1.5,1.2c-2,2-4.3,3-7,3c-5.5,0-8.2-3.3-8.2-9.9
		c0-3.1,0.7-5.5,2-7.3c1.4-1.7,3.3-2.6,5.7-2.6c2.4,0,4.3,0.8,5.7,2.5c1.4,1.7,2.1,4,2.1,6.9V30.9z M149.6,29.3
		c-0.1-1.5-0.3-2.7-0.7-3.7c-0.4-1-1.1-1.7-2-2.3s-1.9-0.9-3-0.9c-1.1,0-2.1,0.3-3,0.9c-0.9,0.6-1.6,1.4-2,2.3
		c-0.4,1-0.6,2.2-0.7,3.7H149.6z"/>
	<path class="st4" d="M185.7,32c-0.5,2.6-1.6,4.6-3.3,6.1c-1.7,1.5-3.9,2.2-6.4,2.2c-2.8,0-5.2-1-7.1-2.9c-1.2-1.2-2-2.6-2.3-4.3
		c-0.2-1.2-0.4-3.6-0.4-7.2s0.1-6,0.4-7.2c0.3-1.7,1.1-3.1,2.3-4.3c1.9-1.9,4.3-2.9,7.1-2.9c2.5,0,4.7,0.7,6.4,2.2
		c1.7,1.5,2.8,3.5,3.3,6.1h-2.2c-0.4-2-1.3-3.5-2.6-4.7c-1.3-1.1-2.9-1.7-4.9-1.7c-2.1,0-3.9,0.7-5.4,2.2c-1,1-1.6,2.2-1.9,3.6
		c-0.2,1.2-0.3,3.4-0.3,6.7s0.1,5.5,0.3,6.7c0.3,1.5,0.9,2.7,1.9,3.6c1.5,1.5,3.3,2.2,5.4,2.2c1.9,0,3.6-0.6,4.9-1.7
		c1.3-1.1,2.2-2.7,2.7-4.7H185.7z"/>
	<path class="st4" d="M205,30.5c0,3.6-0.8,6.2-2.4,7.8c-1.4,1.4-3.2,2.1-5.4,2.1c-2.2,0-3.9-0.7-5.4-2.1c-1.6-1.6-2.4-4.2-2.4-7.8
		c0-3.6,0.8-6.2,2.4-7.8c1.4-1.4,3.2-2.1,5.4-2.1c2.2,0,3.9,0.7,5.4,2.1C204.2,24.3,205,26.9,205,30.5z M203,30.5
		c0-3.1-0.6-5.3-1.7-6.4c-1.1-1.1-2.5-1.7-4-1.7s-2.9,0.6-4,1.7c-1.1,1.1-1.7,3.3-1.7,6.4c0,3.1,0.6,5.3,1.7,6.4
		c1.1,1.1,2.5,1.7,4,1.7s2.9-0.6,4-1.7C202.4,35.8,203,33.6,203,30.5z"/>
	<path class="st4" d="M237.3,40.1h-2v-12c0-3.8-1.8-5.8-5.3-5.8c-1.6,0-3,0.5-3.9,1.5c-1,1-1.5,2.3-1.5,3.9v12.3h-2v-12
		c0-3.8-1.8-5.8-5.3-5.8c-1.7,0-3,0.5-4,1.5c-1,1-1.4,2.4-1.4,4.2v12h-2V20.8h2v2.3c1.4-1.7,3.3-2.5,5.7-2.5c2.9,0,5,1.2,6.2,3.5
		c1.5-2.3,3.7-3.5,6.6-3.5c2.2,0,3.9,0.6,5.2,1.9c1.3,1.3,1.9,3,1.9,5.3V40.1z"/>
	<path class="st4" d="M257.7,30.5c0,3.8-0.8,6.5-2.5,8.2c-1.1,1.1-2.7,1.7-4.7,1.7c-2.5,0-4.4-0.9-5.7-2.7v11.7h-2V20.8h2v2.5
		c1.4-1.8,3.3-2.7,5.7-2.7c2,0,3.6,0.6,4.7,1.7C256.9,23.9,257.7,26.7,257.7,30.5z M255.7,30.5c0-2.5-0.3-4.3-1-5.6
		c-0.9-1.7-2.3-2.5-4.5-2.5c-2.1,0-3.6,0.8-4.5,2.5c-0.6,1.3-1,3.1-1,5.6c0,2.5,0.3,4.3,1,5.5c0.9,1.7,2.3,2.6,4.5,2.6
		c2.1,0,3.6-0.9,4.5-2.6C255.4,34.8,255.7,32.9,255.7,30.5z"/>
	<path class="st4" d="M269.3,40.1h-1.8c-1.5,0-2.6-0.5-3.4-1.4c-0.8-0.9-1.2-2.1-1.2-3.6V22.4h-2.6v-1.5h2.6v-6.2h2v6.2h4.4v1.5
		h-4.4v12.8c0,2.1,1,3.2,3,3.2h1.4V40.1z"/>
	<path class="st4" d="M287.8,30.5c0,3.6-0.8,6.2-2.4,7.8c-1.4,1.4-3.2,2.1-5.4,2.1c-2.2,0-3.9-0.7-5.4-2.1c-1.6-1.6-2.4-4.2-2.4-7.8
		c0-3.6,0.8-6.2,2.4-7.8c1.4-1.4,3.2-2.1,5.4-2.1c2.2,0,3.9,0.7,5.4,2.1C287,24.3,287.8,26.9,287.8,30.5z M285.7,30.5
		c0-3.1-0.6-5.3-1.7-6.4c-1.1-1.1-2.5-1.7-4-1.7s-2.9,0.6-4,1.7c-1.1,1.1-1.7,3.3-1.7,6.4c0,3.1,0.6,5.3,1.7,6.4
		c1.1,1.1,2.5,1.7,4,1.7s2.9-0.6,4-1.7C285.2,35.8,285.7,33.6,285.7,30.5z"/>
	<path class="st4" d="M294.7,14.2h-2.5v-2.5h2.5V14.2z M294.5,40.1h-2V20.8h2V40.1z"/>
	<path class="st4" d="M312.5,22.4l-1.5,1.5c-1-1-2.2-1.5-3.6-1.5c-1.6,0-2.9,0.6-3.8,1.7c-0.9,1.1-1.4,2.5-1.4,4.1v11.9h-2V20.8h2
		v2.6c1.2-1.9,3.1-2.8,5.6-2.8C309.8,20.6,311.3,21.2,312.5,22.4z"/>
</g>
<g>
	<path class="st4" d="M151.1,74.3h-2v-2.5c-1.4,1.8-3.3,2.7-5.7,2.7c-2,0-3.6-0.6-4.7-1.7c-1.7-1.7-2.5-4.4-2.5-8.2
		c0-3.8,0.8-6.5,2.5-8.2c1.1-1.1,2.7-1.7,4.7-1.7c2.5,0,4.4,0.9,5.7,2.7V45.8h2V74.3z M149.1,64.7c0-2.5-0.3-4.3-1-5.6
		c-0.9-1.7-2.3-2.5-4.5-2.5c-2.1,0-3.6,0.8-4.5,2.5c-0.6,1.3-1,3.1-1,5.6c0,2.5,0.3,4.3,1,5.5c0.9,1.7,2.3,2.6,4.5,2.6
		c2.1,0,3.6-0.9,4.5-2.6C148.8,69,149.1,67.1,149.1,64.7z"/>
	<path class="st4" d="M171.5,74.3h-2V72c-1.4,1.7-3.3,2.5-5.7,2.5c-2.2,0-4-0.6-5.2-1.9c-1.3-1.3-1.9-3-1.9-5.3V55h2v12
		c0,3.8,1.8,5.8,5.3,5.8c1.7,0,3-0.5,4-1.5s1.4-2.4,1.4-4.2V55h2V74.3z"/>
	<path class="st4" d="M209.8,74.3h-2.2V50.8L199,70.3h-2.2l-8.8-19.5v23.5h-2.2V45.8h2.2l9.9,22l9.7-22h2.2V74.3z"/>
	<path class="st4" d="M218.4,48.3h-2.5v-2.5h2.5V48.3z M218.2,74.3h-2V55h2V74.3z"/>
	<path class="st4" d="M238.2,65.1h-13.4c0,5.1,2.1,7.6,6.3,7.6c2,0,3.8-0.8,5.3-2.4l1.5,1.2c-2,2-4.3,3-7,3c-5.5,0-8.2-3.3-8.2-9.9
		c0-3.1,0.7-5.5,2-7.3c1.4-1.7,3.3-2.6,5.7-2.6c2.4,0,4.3,0.8,5.7,2.5c1.4,1.7,2.1,4,2.1,6.9V65.1z M236.2,63.5
		c-0.1-1.5-0.3-2.7-0.7-3.7c-0.4-1-1.1-1.7-2-2.3s-1.9-0.9-3-0.9c-1.1,0-2.1,0.3-3,0.9c-0.9,0.6-1.6,1.4-2,2.3
		c-0.4,1-0.6,2.2-0.7,3.7H236.2z"/>
	<path class="st4" d="M249.2,74.3h-1.8c-3.1,0-4.6-1.7-4.6-5V45.8h2v23.4c0,1.1,0.2,1.9,0.7,2.5c0.4,0.5,1.2,0.8,2.3,0.8h1.4V74.3z"
		/>
</g>
<g>
	<g>
		<line class="st5" x1="1.2" y1="0" x2="1.2" y2="2.5"/>
		<path class="st6" d="M1.2,6.5v39.8c0,32.2,26.1,58.4,58.4,58.4c32.1,0,58.1-25.9,58.4-57.9"/>
		<line class="st5" x1="118" y1="44.8" x2="118" y2="42.3"/>
	</g>
</g>
<line class="st7" x1="255.2" y1="73.2" x2="284.9" y2="73.2"/>
</svg>
